<svg
      width="21"
      height="22"
      viewBox="0 0 21 22"
      fill="none"
      xmlns="http://www.w3.org/2000/svg"
    >
      <path
        d="M20.6154 18.2789L17.0625 14.5567C17.8894 13.113 18.375 11.4286 18.375 9.62598C18.375 4.31848 14.2524 0.000976562 9.1875 0.000976562C4.12256 0.000976562 0 4.31848 0 9.62598C0 14.9335 4.12256 19.251 9.1875 19.251C10.9095 19.251 12.516 18.7436 13.8941 17.876L17.4471 21.5981C17.703 21.8662 18.039 22.001 18.375 22.001C18.711 22.001 19.047 21.8662 19.3029 21.5981L20.6154 20.2231C21.1286 19.6855 21.1286 18.8165 20.6154 18.2789ZM9.1875 16.501C5.56369 16.501 2.625 13.4224 2.625 9.62598C2.625 5.8296 5.56369 2.75098 9.1875 2.75098C12.8113 2.75098 15.75 5.8296 15.75 9.62598C15.75 13.4224 12.8113 16.501 9.1875 16.501Z"
        fill="black"
      />
    </svg>